<?xml version="1.0" encoding="utf-8"?>
<!-- Generator: Adobe Illustrator 27.2.0, SVG Export Plug-In . SVG Version: 6.00 Build 0)  -->
<svg version="1.1" id="Capa_1" xmlns="http://www.w3.org/2000/svg" xmlns:xlink="http://www.w3.org/1999/xlink" x="0px" y="0px"
	 viewBox="0 0 183.36 141.66" style="enable-background:new 0 0 183.36 141.66;" xml:space="preserve">
<style type="text/css">
	.st0{fill:url(#SVGID_1_);}
	.st1{fill:#E8E7E7;}
	.st2{fill:#DDDDDD;}
	.st3{fill:#FFFFFF;}
	.st4{fill:#C2C1C1;}
	.st5{fill:#E14370;}
	.st6{fill:#C4C4C3;}
	.st7{fill:#F5ABAE;}
	.st8{fill:#182C4A;}
	.st9{fill:#EFD05F;}
	.st10{fill:#98626B;}
	.st11{fill:#E9E9E9;}
	.st12{fill:url(#SVGID_00000096742404209370435820000002248475322303456165_);}
</style>
<linearGradient id="SVGID_1_" gradientUnits="userSpaceOnUse" x1="-827.1425" y1="534.8555" x2="-824.8851" y2="537.1129" gradientTransform="matrix(70.4649 25.0367 21.539 -60.6208 46752.457 53244.6602)">
	<stop  offset="0" style="stop-color:#E14370"/>
	<stop  offset="0.1469" style="stop-color:#E14871"/>
	<stop  offset="0.2982" style="stop-color:#E25673"/>
	<stop  offset="0.4517" style="stop-color:#E36A76"/>
	<stop  offset="0.6068" style="stop-color:#E58377"/>
	<stop  offset="0.7629" style="stop-color:#E8A075"/>
	<stop  offset="0.9178" style="stop-color:#ECBF6A"/>
	<stop  offset="1" style="stop-color:#EFD05F"/>
</linearGradient>
<path class="st0" d="M152.6,27.8c11.59,13.22,23.02,27.58,23.73,42.45c0.63,15.08-9.59,30.37-22.06,39.84
	c-12.39,9.25-27.24,12.6-39.7,14.64c-12.18,1.9-22.04,2.71-33.87,4.98c-11.75,2.05-25.24,5.64-32.78,0.57
	c-7.25-5.21-8.47-19.3-18.14-32.56C19.98,84.17,1.81,71.25,3.07,61.63c1.18-9.4,21.8-15.49,36.62-21.49
	c14.61-6.07,23.52-12.25,35.53-20.44c11.8-8.26,26.57-18.83,40.2-18.06C128.83,2.34,140.8,14.5,152.6,27.8z"/>
<path class="st1" d="M32.66,132.61l1.82-2.92l0.36,1.67c0.06,0.29,0.13,0.59,0.19,0.88c0.52-0.44,1.06-0.85,1.6-1.24
	c1.65-1.2,3.3-2.39,4.94-3.59l-0.52,2.99c-0.32,1.84-0.65,3.72-1.44,5.41c-0.09,0.19-0.18,0.38-0.28,0.56h-7.66
	c-0.06-0.17-0.1-0.35-0.13-0.53c0-0.01,0-0.02,0-0.04C31.42,134.66,32.05,133.59,32.66,132.61z"/>
<path class="st2" d="M148.07,5.65H40.19c-1.93,0-3.49,1.57-3.5,3.5v72.79c0,1.93,1.57,3.49,3.5,3.5h107.88c1.93,0,3.49-1.57,3.5-3.5
	V9.14C151.56,7.21,150,5.65,148.07,5.65z"/>
<path class="st3" d="M147.4,83.02H76.72C56.1,82.96,39.4,66.26,39.34,45.65v-35.6c0-1.1,0.89-1.99,1.99-1.99H147.4
	c1.1,0,1.99,0.89,1.99,1.99v70.99C149.39,82.13,148.5,83.02,147.4,83.02z"/>
<path class="st4" d="M141.84,17.95H42.58c-0.22,0-0.39-0.19-0.39-0.4c0-0.21,0.17-0.38,0.39-0.39h99.25c0.22,0,0.39,0.19,0.39,0.4
	C142.22,17.78,142.05,17.95,141.84,17.95z"/>
<ellipse class="st5" cx="49.34" cy="12.78" rx="2.31" ry="2.36"/>
<ellipse class="st5" cx="57.33" cy="12.78" rx="2.31" ry="2.36"/>
<ellipse class="st5" cx="65.32" cy="12.78" rx="2.31" ry="2.36"/>
<path class="st5" d="M110.18,53.43H69.98c-1.51,0.02-2.78-1.13-2.9-2.63c-0.11-1.56,1.07-2.91,2.63-3.01h0
	c0.06,0,0.13-0.01,0.19-0.01h40.28c1.56,0,2.83,1.27,2.83,2.83C113,52.17,111.74,53.43,110.18,53.43z"/>
<circle class="st2" cx="110.25" cy="35.05" r="2.55"/>
<path class="st3" d="M109.9,36.38c-0.09,0-0.17-0.04-0.23-0.11l-0.7-0.93c-0.09-0.13-0.07-0.3,0.05-0.4c0.13-0.09,0.3-0.07,0.4,0.05
	c0,0,0,0,0,0l0.46,0.61l1.17-1.76c0.09-0.13,0.26-0.17,0.39-0.08c0.13,0.09,0.17,0.26,0.08,0.39l0,0l0,0l-1.39,2.09
	C110.09,36.33,110,36.38,109.9,36.38L109.9,36.38z"/>
<circle class="st2" cx="110.25" cy="66.14" r="2.55"/>
<path class="st3" d="M109.9,67.47c-0.09,0-0.17-0.04-0.23-0.11l-0.7-0.93c-0.09-0.13-0.07-0.3,0.05-0.4c0.13-0.09,0.3-0.07,0.4,0.05
	c0,0,0,0,0,0l0.46,0.61l1.17-1.76c0.09-0.13,0.26-0.17,0.39-0.08c0.13,0.09,0.17,0.26,0.08,0.39l0,0l-1.39,2.09
	C110.09,67.42,110,67.47,109.9,67.47L109.9,67.47z"/>
<path class="st5" d="M89.68,37.89h-19.7c-1.51,0.02-2.78-1.13-2.9-2.63c-0.11-1.56,1.07-2.91,2.63-3.01h0
	c0.06,0,0.13-0.01,0.19-0.01h19.79c1.56,0,2.83,1.27,2.83,2.83C92.51,36.62,91.24,37.89,89.68,37.89z"/>
<path class="st5" d="M110.18,38.01H69.9c-1.63,0-2.94-1.32-2.94-2.94c0-1.63,1.32-2.94,2.94-2.94h40.28c1.63,0,2.94,1.32,2.94,2.94
	C113.12,36.69,111.8,38.01,110.18,38.01z M69.9,32.59c-1.37,0-2.47,1.11-2.47,2.47c0,1.37,1.11,2.47,2.47,2.47h40.28
	c1.37,0,2.47-1.11,2.47-2.47c0-1.37-1.11-2.47-2.47-2.47H69.9z"/>
<path class="st5" d="M110.18,53.55H69.9c-1.63,0-2.94-1.32-2.94-2.94c0-1.63,1.32-2.94,2.94-2.94h40.28c1.63,0,2.94,1.32,2.94,2.94
	C113.12,52.23,111.8,53.55,110.18,53.55z M69.9,48.14c-1.37,0-2.47,1.11-2.47,2.47c0,1.37,1.11,2.47,2.47,2.47h40.28
	c1.37,0,2.47-1.11,2.47-2.47c0-1.37-1.11-2.47-2.47-2.47H69.9z"/>
<path class="st5" d="M81.2,68.98H69.98c-1.51,0.02-2.78-1.13-2.9-2.63c-0.11-1.56,1.07-2.91,2.63-3.01h0c0.06,0,0.13-0.01,0.19-0.01
	H81.2c1.56,0,2.83,1.27,2.83,2.83S82.77,68.98,81.2,68.98z"/>
<path class="st5" d="M110.18,69.1H69.9c-1.63,0-2.94-1.32-2.94-2.94c0-1.63,1.32-2.94,2.94-2.94h40.28c1.63,0,2.94,1.32,2.94,2.94
	C113.12,67.78,111.8,69.1,110.18,69.1z M69.9,63.68c-1.37,0-2.47,1.11-2.47,2.47c0,1.37,1.11,2.47,2.47,2.47h40.28
	c1.37,0,2.47-1.11,2.47-2.47c0-1.37-1.11-2.47-2.47-2.47H69.9z"/>
<path class="st6" d="M77.44,29.2h-9.42c-0.52,0-0.94-0.42-0.94-0.94c0-0.52,0.42-0.94,0.94-0.94h9.42c0.52,0,0.94,0.42,0.94,0.94
	C78.38,28.78,77.96,29.2,77.44,29.2z"/>
<path class="st6" d="M77.44,44.75h-9.42c-0.52,0-0.94-0.42-0.94-0.94s0.42-0.94,0.94-0.94h9.42c0.52,0,0.94,0.42,0.94,0.94
	S77.96,44.75,77.44,44.75z"/>
<path class="st6" d="M77.44,60.29h-9.42c-0.52,0-0.94-0.42-0.94-0.94c0-0.52,0.42-0.94,0.94-0.94h9.42c0.52,0,0.94,0.42,0.94,0.94
	C78.38,59.87,77.96,60.29,77.44,60.29z"/>
<ellipse class="st5" cx="63.31" cy="28.36" rx="1.02" ry="1.05"/>
<ellipse class="st5" cx="63.31" cy="43.9" rx="1.02" ry="1.05"/>
<ellipse class="st5" cx="63.31" cy="59.45" rx="1.02" ry="1.05"/>
<polygon class="st7" points="130.77,133.82 128.44,133.82 127.33,124.83 130.77,124.83 "/>
<path class="st8" d="M130.85,136.26l-7.17,0v-0.09c0-1.54,1.25-2.79,2.79-2.79h0l1.31-0.99l2.44,0.99l0.63,0L130.85,136.26z"/>
<polygon class="st7" points="139.95,133.82 137.62,133.82 136.51,124.83 139.95,124.83 "/>
<path class="st8" d="M140.04,136.26l-7.17,0v-0.09c0-1.54,1.25-2.79,2.79-2.79h0l1.31-0.99l2.44,0.99l0.63,0L140.04,136.26z"/>
<path class="st8" d="M122.74,77.49l-1.65,5.65l1.94,23.94c0,0-1,1.5-0.29,1.5s1.61,0.33,1.04,1.23c-0.57,0.89,1.38,4.1,1.38,4.1
	l2.76,17.05l3.52-0.05c0,0,1.79-1,0.78-2c-1-1.01-1.71-1.01-0.77-1.95s0.94-0.66,0.94-1.39c0-0.73,0.94-9.66-1.29-13.09l0.67-13.97
	l1.59,13.7l3.27,18.28l3.39-0.03c0,0,1.56-1.51,1.56-2.62c0-1.12-0.97-1.21-0.25-1.87c0.72-0.66,0.72-10.8-1.4-16.44l0.02-25.22
	c0,0,2.08-5.66-0.03-7.89C137.82,74.19,122.74,77.49,122.74,77.49z"/>
<path class="st7" d="M143.97,67.62l1.42-14.71c0.12-1.3-0.82-2.45-2.12-2.59l0,0c-1.31-0.14-2.49,0.8-2.63,2.11
	c0,0.04-0.01,0.08-0.01,0.13l-1.01,15.32l-1,9.29c-1.1,0.33-1.73,1.49-1.39,2.59c0.33,1.1,1.49,1.73,2.59,1.39
	c1.1-0.33,1.73-1.49,1.39-2.59c-0.04-0.12-0.08-0.23-0.14-0.34L143.97,67.62z"/>
<path class="st5" d="M138.65,45.46l5.12,0.64c0,0,3.83,7.23,3.04,7.84s-4.35,4.44-6.98,2.69C137.2,54.87,138.65,45.46,138.65,45.46z
	"/>
<circle class="st7" cx="129.84" cy="33.09" r="5.43"/>
<path class="st8" d="M131.94,38.08c-1.56-0.05-1.7-0.46-3.26-0.51c-0.5-0.02-1.08-0.08-1.32-0.52c-0.14-0.33-0.12-0.71,0.06-1.02
	c0.18-0.31,0.34-0.62,0.48-0.94c0.29-0.86-0.17-1.8-1.04-2.09c-0.19-0.06-0.4-0.09-0.6-0.08c-0.47,0.02-0.92,0.24-1.39,0.28
	c-0.65,0.06-2.08-2.09-1.78-2.66c0.29-0.56,0.88-0.99,0.97-1.61c0.06-0.41-0.11-0.82-0.13-1.23c-0.03-0.61,1.52,0.77,1.24,0.23
	c-0.7-1.34,5.89-2.99,6.97-1.32c0.41,0.63,1.13,0.58,1.77,0.96c0.42,0.25,1.49,1.1,1.73,1.62c0.22,0.54,0.33,1.12,0.31,1.7
	c0.01,2.71-0.4,5.21-2.59,6.82"/>
<path class="st5" d="M128.4,40.04l4.48-0.94l3.44,1.65c0,0,8.13,3.27,8.1,6.5c-0.03,3.22-1.46,10.29-3.1,11
	c-1.64,0.71,1.42,3.06,0.48,4.48c-0.94,1.41-2.37,11.07-2.37,11.07s3.34,6.65,0.51,7.94s-14.75,2.51-15.52,0.82
	s-0.77-0.77-2.53-1.23c-1.76-0.46,0-6.93,1.59-7.58c1.59-0.65,2.53-14.78,2.53-14.78l-2.53-10.99l3.86-5.44L128.4,40.04z"/>
<path class="st7" d="M125.26,70.24l4.04-14.21c0.35-1.25-0.37-2.56-1.61-2.93l0,0c-1.26-0.38-2.59,0.34-2.97,1.6
	c-0.01,0.04-0.02,0.08-0.03,0.12l-3.75,14.89l-2.66,8.95c-1.14,0.13-1.97,1.16-1.84,2.3c0.13,1.14,1.16,1.97,2.3,1.84
	c1.14-0.13,1.97-1.16,1.84-2.3c-0.01-0.12-0.04-0.24-0.07-0.36L125.26,70.24z"/>
<path class="st5" d="M124.01,47.48l4.92,1.55c0,0,3.2,4.7,2,5.37s-1.65,0.53-1.03,1.71c0.62,1.18,1.5,0.72,0.62,1.18
	c-0.89,0.46-5.08,3.58-7.35,1.39S124.01,47.48,124.01,47.48z"/>
<path class="st3" d="M9.72,136.4c0,0.15,0.12,0.28,0.28,0.28h0h168.48c0.15,0,0.28-0.13,0.28-0.28s-0.13-0.28-0.28-0.28H10
	C9.84,136.12,9.72,136.24,9.72,136.4L9.72,136.4L9.72,136.4z"/>
<circle class="st5" cx="110.25" cy="50.6" r="4.81"/>
<path class="st3" d="M109.59,53.1c-0.17,0-0.33-0.08-0.43-0.21l-1.31-1.75c-0.18-0.24-0.13-0.57,0.11-0.75
	c0.24-0.18,0.57-0.13,0.75,0.11l0.86,1.14l2.2-3.31c0.16-0.25,0.49-0.31,0.74-0.15c0.25,0.16,0.31,0.49,0.15,0.74l0,0l0,0
	l-2.62,3.93c-0.1,0.14-0.26,0.23-0.43,0.24L109.59,53.1z"/>
</svg>
