<?xml version="1.0" encoding="utf-8"?>
<!-- Generator: Adobe Illustrator 27.2.0, SVG Export Plug-In . SVG Version: 6.00 Build 0)  -->
<svg version="1.1" id="Capa_1" xmlns="http://www.w3.org/2000/svg" xmlns:xlink="http://www.w3.org/1999/xlink" x="0px" y="0px"
	 viewBox="0 0 1500 1500" style="enable-background:new 0 0 1500 1500;" xml:space="preserve">
<style type="text/css">
	.st0{fill:url(#SVGID_1_);}
	.st1{clip-path:url(#SVGID_00000075847702216050790470000002453546655305369992_);}
</style>
<g>
	
		<linearGradient id="SVGID_1_" gradientUnits="userSpaceOnUse" x1="-210.3713" y1="1278.8982" x2="-197.9268" y2="1291.3427" gradientTransform="matrix(85.7037 0 0 -72.9447 18247.4102 94642.6016)">
		<stop  offset="0" style="stop-color:#E1426F"/>
		<stop  offset="0.1636" style="stop-color:#E1466F"/>
		<stop  offset="0.3322" style="stop-color:#E3536D"/>
		<stop  offset="0.5032" style="stop-color:#E5676B"/>
		<stop  offset="0.6757" style="stop-color:#E88468"/>
		<stop  offset="0.8478" style="stop-color:#EBA963"/>
		<stop  offset="1" style="stop-color:#EFD05F"/>
	</linearGradient>
	<path class="st0" d="M1008.24,486.57c74.67,36.09,144.36,94.58,195.38,171.73s84.62,171.73,74.67,262.58
		c-9.96,92.09-63.47,177.96-128.18,258.84c-64.71,79.64-140.62,154.31-226.49,168c-85.87,13.69-181.69-33.6-267.56-75.91
		c-85.87-43.56-163.02-82.13-243.91-138.13c-80.89-54.76-168-126.93-191.64-215.29c-23.64-88.36,14.93-192.89,79.64-267.56
		c63.47-73.42,151.82-116.98,233.96-149.33c82.13-32.36,159.29-54.76,237.69-58.49C851.44,439.29,932.33,451.73,1008.24,486.57z"/>
	<g>
		<defs>
			<path id="SVGID_00000168091016047722123550000013513208885199942272_" d="M1266.75,313.08c74.67,36.09-32.55,242.54,18.47,319.69
				c51.02,77.16,3.02,197.27-6.93,288.11c-9.96,92.09-63.47,177.96-128.18,258.84c-64.71,79.64-140.62,154.31-226.49,168
				c-85.87,13.69-181.69-33.6-267.56-75.91c-85.87-43.56-163.02-82.13-243.91-138.13c-80.89-54.76-168-126.93-191.64-215.29
				c-23.64-88.36,14.93-192.89,79.64-267.56c63.47-73.42,24.85-279.83,106.98-312.18C489.27,306.3,726.57,48.28,804.97,44.54
				C884.62,40.81,1190.84,278.24,1266.75,313.08z"/>
		</defs>
		<clipPath id="SVGID_00000019677846401302991460000008205060862289169821_">
			<use xlink:href="#SVGID_00000168091016047722123550000013513208885199942272_"  style="overflow:visible;"/>
		</clipPath>
		
			<g id="jgwUz0_00000088833725451047235490000004916764408899124894_" style="clip-path:url(#SVGID_00000019677846401302991460000008205060862289169821_);">
			
				<image style="overflow:visible;" width="657" height="699" id="jgwUz0_00000183953285390779984160000001141522930303330492_" xlink:href="79217600C96C3CB6.png"  transform="matrix(1.6932 0 0 1.6932 248 171)">
			</image>
		</g>
	</g>
</g>
</svg>
