<?xml version="1.0" encoding="utf-8"?>
<!-- Generator: Adobe Illustrator 27.2.0, SVG Export Plug-In . SVG Version: 6.00 Build 0)  -->
<svg version="1.1" id="Capa_1" xmlns="http://www.w3.org/2000/svg" xmlns:xlink="http://www.w3.org/1999/xlink" x="0px" y="0px"
	 viewBox="0 0 188.1 124.56" style="enable-background:new 0 0 188.1 124.56;" xml:space="preserve">
<style type="text/css">
	.st0{fill:url(#SVGID_1_);}
	.st1{fill:#E8E7E7;}
	.st2{fill:#DDDDDD;}
	.st3{fill:#FFFFFF;}
	.st4{fill:#C2C1C1;}
	.st5{fill:#E14370;}
	.st6{fill:#C4C4C3;}
	.st7{fill:#F5ABAE;}
	.st8{fill:#182C4A;}
	.st9{fill:#EFD05F;}
	.st10{fill:#98626B;}
	.st11{fill:#E9E9E9;}
	.st12{fill:url(#SVGID_00000170240296653686767390000008680831450055511992_);}
</style>
<g>
	<path class="st8" d="M158.58,36.18c1.09,7.72-4.13,6.27-7.94,5.67c-0.91-0.14-2.57,1.08-3.14,1.4c-0.32-1.14-0.34-0.86-1.19-1.81
		c0.46,1.26-0.95,1.82-0.44,2.55c-1.27-0.09-1.84-2.8-0.69-8.72c0.5-2.6,1.82-6.59,7.19-5.71
		C158.19,30.51,158.24,33.76,158.58,36.18z"/>
	<circle class="st10" cx="150.87" cy="37.04" r="4.82"/>
	<path class="st8" d="M144.39,35.32L144.39,35.32l2.31,0.35c1.02-0.64,1.4-1.58,1.45-2.69l-0.23,2.88l1.1,0.17
		c0.72-0.48,1.04-1,0.85-1.57l-0.14,1.68c2.94,1.06,5.79,1.84,8.19,1.25l0,0c0.52-3.41-1.82-6.6-5.23-7.12l0,0l-1.19-0.18
		C148.1,29.57,144.91,31.91,144.39,35.32C144.39,35.32,144.39,35.32,144.39,35.32z"/>
	<path class="st2" d="M136.63,67.02H26.12c-1.42,0-2.58-1.16-2.58-2.58V41.55c0-1.42,1.16-2.58,2.58-2.58h110.52
		c1.42,0,2.58,1.16,2.58,2.58v22.89C139.21,65.86,138.06,67.02,136.63,67.02z"/>
	<path class="st3" d="M129.18,65.28H27.86c-1.42,0-2.58-1.16-2.58-2.58V43.29c0-1.42,1.16-2.58,2.58-2.58h107.03
		c1.42,0,2.58,1.16,2.58,2.58v13.69C137.47,61.56,133.76,65.27,129.18,65.28z"/>
	<path class="st5" d="M115.81,49.51H84.96c-0.37,0-0.67-0.3-0.67-0.67s0.3-0.67,0.67-0.67h30.86c0.37,0,0.67,0.3,0.67,0.67
		S116.18,49.51,115.81,49.51z"/>
	<path class="st2" d="M123.62,53.46H77.15c-0.37,0-0.67-0.3-0.67-0.67c0-0.37,0.3-0.67,0.67-0.67h46.47c0.37,0,0.67,0.3,0.67,0.67
		C124.29,53.16,123.99,53.46,123.62,53.46z"/>
	<path class="st2" d="M123.62,57.81H77.15c-0.37,0-0.67-0.3-0.67-0.67s0.3-0.67,0.67-0.67h46.47c0.37,0,0.67,0.3,0.67,0.67
		S123.99,57.81,123.62,57.81z"/>
	<polygon class="st5" points="84.55,42.79 84.17,42.79 84.17,28.18 111.59,28.18 111.59,28.56 84.55,28.56 	"/>
	<path class="st5" d="M123.19,25.78h-10.05c-1.36,0-2.46,1.1-2.46,2.46c0,1.36,1.1,2.46,2.46,2.46h10.05c1.36,0,2.46-1.1,2.46-2.46
		C125.66,26.89,124.55,25.78,123.19,25.78z"/>
	<circle class="st2" cx="84.14" cy="43.01" r="2.26"/>
	<polygon class="st10" points="166.18,119.66 164.09,119.66 163.09,111.59 166.18,111.59 	"/>
	<path class="st8" d="M167.29,123.29h-1.5l-0.27-1.42l-0.69,1.42h-3.98c-0.49,0-0.89-0.4-0.89-0.89c0-0.29,0.14-0.57,0.39-0.74
		l3.18-2.2v-1.43l3.34,0.2L167.29,123.29z"/>
	<polygon class="st10" points="151.77,119.66 149.68,119.66 148.69,111.59 151.77,111.59 	"/>
	<path class="st8" d="M152.88,123.29h-1.5l-0.27-1.42l-0.69,1.42h-3.98c-0.49,0-0.89-0.4-0.89-0.89c0-0.29,0.14-0.57,0.39-0.74
		l3.18-2.2v-1.43l3.34,0.2L152.88,123.29z"/>
	<path class="st10" d="M171.58,72.76c0.56-0.78,0.37-1.87-0.41-2.42c-0.08-0.06-0.17-0.11-0.26-0.15l-5.1-14.93l-3.04,1.6
		l5.76,14.27c-0.35,0.9,0.09,1.91,0.98,2.26C170.27,73.68,171.12,73.42,171.58,72.76z"/>
	<path class="st10" d="M139.68,79.43c0.92-0.27,1.44-1.24,1.17-2.16c-0.03-0.1-0.07-0.19-0.11-0.28l5.16-14.91l-3.38-0.61
		l-4.23,14.79c-0.83,0.49-1.11,1.56-0.62,2.39C138.07,79.34,138.91,79.66,139.68,79.43L139.68,79.43z"/>
	<path class="st8" d="M147.82,70.53c0,0,13.46-3.44,12.89-2.28l0,0c0,0,4.16-1.29,4.73,7.29l-0.18,17.17l0.75,13.4
		c0,0-0.46,1.09,0.06,1c0.51-0.1,0.08,1.51,0.08,1.51s-0.43,1.7,0.09,1.66s0.15,2.61,0.15,2.61h-3.41l-6.54-29.39l-2.93,10.72
		c0,0,0.16,1.15-0.11,1.19s-0.08,0.86-0.08,0.86l-0.1,1.09l-1.42,14.96l-3.22,0.19c0,0-0.03-0.33,0-1.14
		c0.02-0.6,0.2-1.56-0.28-2.35c-0.54-0.88-0.86-1.9-0.23-3.02c0.44-0.78-0.13-1.84-0.2-2.85c-0.43-6.37-0.88-14.87-0.87-21.81
		c0-0.28-0.43-0.97,0-0.82c0.44,0.15,0.01-0.63,0.01-0.93c0.01-0.57,0.6-1.56,0.04-1.66c-0.56-0.1,0.02-0.55,0.03-0.81
		C147.18,74.3,147.41,71.98,147.82,70.53z"/>
	<path class="st5" d="M153.88,42.47l-5.5,0.57l-0.53,2.56l-5.22,3.19l1.81,4.88c0,0-1.47,4.94,2.68,6.93l1.46,4.24l-0.51,3.01
		l-0.14,0.84c0.36,0.68,0.43,1.17-0.21,1.25l-0.21,1.21c-0.92,0.53-0.89,1.48-0.44,2.6l18.39,1.9c0.76-2.47-3.33-10.63-5.5-11.38
		l0.28-12.18l0.47-8.02l-6.26,0.57L153.88,42.47z"/>
	<path class="st5" d="M159.27,44.43L159.27,44.43c0.94-0.68,2.24-0.47,2.92,0.47c0.09,0.13,0.17,0.27,0.23,0.42l3.27,7.81
		c0.62,0.22,1.64,2.13,1.27,2.61c0.01,0.52-0.17,0.14,0.33,0.86c0.57,0.04,0.72,0.28,0.32,0.78l-0.08,0.64l0.23,0.04
		c0.62,0.02,0.65,0.25,0.27,0.63l0,0c0.26,0.16,0.38,0.48,0.29,0.77l-0.41,1.29l-3.22,1.52l-5.3-9.94l-0.86-5.5
		C158.21,45.95,158.52,44.97,159.27,44.43z"/>
	<path class="st5" d="M144.58,49L144.58,49c-0.8-0.69-2.01-0.61-2.71,0.2c-0.34,0.4-0.51,0.91-0.46,1.43
		c0.26,2.76,0.53,5.69,0.53,5.69l-0.44,7.64l4.05,0.87l0.16-1.1l0.41-0.23l-0.29-0.63l0,0c0.24,0.02,0.46-0.15,0.48-0.4
		c0.01-0.06,0-0.12-0.02-0.18l-0.26-0.84l0,0c0.11,0.09,0.26,0.07,0.35-0.04c0.05-0.07,0.07-0.15,0.04-0.23l-0.25-0.75l1.08-7.54
		l-2.32-3.52C144.83,49.25,144.71,49.12,144.58,49z"/>
	<polygon class="st5" points="98.2,63.38 97.82,63.38 97.82,77.99 125.24,77.99 125.24,77.61 98.2,77.61 	"/>
	<path class="st5" d="M139.31,77.92c0-1.36-1.1-2.46-2.46-2.46h-10.05c-1.36,0-2.46,1.1-2.46,2.46s1.1,2.46,2.46,2.46h10.05
		C138.2,80.38,139.3,79.28,139.31,77.92z"/>
	<circle class="st2" cx="98.17" cy="62.53" r="2.26"/>
	<polygon class="st5" points="57.52,63.57 57.9,63.57 57.9,78.18 30.48,78.18 30.48,77.8 57.52,77.8 	"/>
	<path class="st5" d="M18.88,80.57h10.05c1.36,0,2.46-1.1,2.46-2.46s-1.1-2.46-2.46-2.46H18.88c-1.36,0-2.46,1.1-2.46,2.46
		S17.52,80.57,18.88,80.57z"/>
	<circle class="st2" cx="57.98" cy="62.41" r="2.26"/>
	<path class="st1" d="M179.26,123.49h-6.29l-0.03-0.05c-0.08-0.15-0.16-0.3-0.23-0.46c-0.65-1.39-0.92-2.97-1.16-4.37l-0.18-1.06
		c-0.06-0.35,0.18-0.69,0.53-0.75c0.17-0.03,0.35,0.01,0.49,0.12c0.96,0.7,1.91,1.39,2.87,2.09c0.36,0.26,0.78,0.57,1.17,0.9
		c0.04-0.19,0.08-0.37,0.12-0.56c0.08-0.35,0.42-0.58,0.78-0.5c0.17,0.04,0.32,0.14,0.42,0.29l0.74,1.18
		c0.54,0.86,1.01,1.71,0.91,2.63c0,0.01,0,0.02,0,0.03c-0.02,0.15-0.06,0.3-0.11,0.44L179.26,123.49z"/>
	<path class="st4" d="M185.58,123.62l-59.79,0.06c-0.12,0-0.23-0.1-0.22-0.23c0-0.12,0.1-0.22,0.22-0.22l59.79-0.06
		c0.12,0,0.23,0.1,0.22,0.23C185.8,123.52,185.7,123.62,185.58,123.62z"/>
	<circle class="st11" cx="36.15" cy="52.96" r="6.83"/>
	<path class="st5" d="M62.01,49.48h-4.5c-0.37,0-0.67-0.3-0.67-0.67c0-0.37,0.3-0.67,0.67-0.67h4.5c0.37,0,0.67,0.3,0.67,0.67
		C62.68,49.18,62.38,49.48,62.01,49.48L62.01,49.48z"/>
	<path class="st2" d="M69.82,53.42H49.7c-0.37,0-0.67-0.3-0.67-0.67c0-0.37,0.3-0.67,0.67-0.67h20.12c0.37,0,0.67,0.3,0.67,0.67
		C70.49,53.13,70.19,53.42,69.82,53.42z"/>
	<path class="st2" d="M69.82,57.78H49.7c-0.37,0-0.67-0.3-0.67-0.67c0-0.37,0.3-0.67,0.67-0.67h20.12c0.37,0,0.67,0.3,0.67,0.67
		C70.49,57.48,70.19,57.78,69.82,57.78z"/>
</g>
</svg>
