<?xml version="1.0" encoding="utf-8"?>
<!-- Generator: Adobe Illustrator 27.2.0, SVG Export Plug-In . SVG Version: 6.00 Build 0)  -->
<svg version="1.1" id="Capa_1" xmlns="http://www.w3.org/2000/svg" xmlns:xlink="http://www.w3.org/1999/xlink" x="0px" y="0px"
	 viewBox="0 0 306 501" style="enable-background:new 0 0 306 501;" xml:space="preserve">
<style type="text/css">
	.st0{fill:#EC426F;}
</style>
<g>
	<path class="st0" d="M245.7,27.7c15.1,0,27.3,12.2,27.3,27.3v418.3H33V27.7H245.7 M245.7,10.6H33H16v17v445.7v17h17h240h17v-17V55
		C290,30.5,270.1,10.6,245.7,10.6L245.7,10.6z"/>
	<g>
		<path class="st0" d="M96.5,171.2L73.7,95.1h-0.3v76.1H57V56.4h19.3l20.5,68.4h0.3V56.4h16.4v114.8L96.5,171.2L96.5,171.2z"/>
		<path class="st0" d="M154.5,72.5V105h25.4v16h-25.4v34.1H186v16.1h-48.9V56.4H186v16.1H154.5z"/>
		<path class="st0" d="M247,80.5v2.9L230.3,85v-4.3c0-6.6-3.1-10-8.8-10s-8.8,3.4-8.8,10v1.5c0,6.7,2.9,12.5,14.6,22.3
			c15.9,13.4,21.8,22.9,21.8,36.7v5.7c0,16.4-9.7,25.7-26.9,25.7s-26.9-9.3-26.9-25.7v-7.7l16.7-1.6v8.2c0,7.2,3.3,10.8,9.8,10.8
			c6.6,0,9.8-3.6,9.8-10.8V142c0-7.2-3.4-12.9-15.1-22.8c-15.9-13.4-21.3-22.9-21.3-36.4v-2.5c0-16.4,9.3-25.7,25.9-25.7
			S247,64.1,247,80.5z"/>
		<path class="st0" d="M113.2,307.9v-79.7h-0.3l-14.4,63.3H88.2l-14.4-63.3h-0.3v79.7H57V193.1h22.8l13.6,61.6h0.3l13.4-61.6h23.4
			v114.8L113.2,307.9L113.2,307.9z"/>
		<path class="st0" d="M174.7,307.9l-3.8-26.1h-19.2l-3.8,26.1h-17.4l19.8-114.8h22.1l19.8,114.8H174.7z M154.1,266.1h14.6l-7-48.4
			h-0.5L154.1,266.1z"/>
		<path class="st0" d="M231.9,307.9l-22.8-76.1h-0.3v76.1h-16.4V193.1h19.3l20.5,68.4h0.3v-68.4H249v114.8L231.9,307.9L231.9,307.9z
			"/>
		<path class="st0" d="M82.1,329.8c18.7,0,28.9,10.2,28.9,29v9.2c0,18.9-10.2,29-28.9,29h-7.7v47.5H57V329.8H82.1z M74.4,380.9h7
			c8.4,0,12.1-4.4,12.1-14.1V360c0-9.7-3.8-14.1-12.1-14.1h-7V380.9z"/>
		<path class="st0" d="M150.7,396h-8v48.5h-17.4V329.8h25.1c18.7,0,28.9,10.2,28.9,29v8.2c0,12.1-4.3,20.7-12.3,25.2l15.9,52.3
			h-18.4L150.7,396z M142.6,380h7c8.4,0,12.1-4.4,12.1-14.1V360c0-9.7-3.8-14.1-12.1-14.1h-7V380z"/>
		<path class="st0" d="M249,357.2v60c0,18-10.7,29-28,29s-28-11-28-29v-60c0-18,10.7-29,28-29S249,339.1,249,357.2z M210.3,357.3
			V417c0,8.5,3.8,13.1,10.7,13.1s10.7-4.6,10.7-13.1v-59.7c0-8.5-3.8-13.1-10.7-13.1S210.3,348.8,210.3,357.3z"/>
	</g>
</g>
</svg>
