<?xml version="1.0" encoding="utf-8"?>
<!-- Generator: Adobe Illustrator 27.2.0, SVG Export Plug-In . SVG Version: 6.00 Build 0)  -->
<svg version="1.1" id="Capa_1" xmlns="http://www.w3.org/2000/svg" xmlns:xlink="http://www.w3.org/1999/xlink" x="0px" y="0px"
	 viewBox="0 0 183.36 148.89" style="enable-background:new 0 0 183.36 148.89;" xml:space="preserve">
<style type="text/css">
	.st0{fill:#E8E7E7;}
	.st1{fill:#DDDDDD;}
	.st2{fill:#FFFFFF;}
	.st3{fill:#C2C1C1;}
	.st4{fill:#E14370;}
	.st5{fill:#C4C4C3;}
	.st6{fill:#F5ABAE;}
	.st7{fill:#182C4A;}
	.st8{fill:url(#SVGID_1_);}
	.st9{fill:#EFD05F;}
	.st10{fill:#98626B;}
	.st11{fill:#E9E9E9;}
	.st12{fill:url(#SVGID_00000058580837073887447750000002326138869374606491_);}
</style>
<linearGradient id="SVGID_1_" gradientUnits="userSpaceOnUse" x1="-1056.752" y1="542.1171" x2="-1054.4946" y2="544.3745" gradientTransform="matrix(74.7806 0 0 -64.3335 79038.0547 35026.6055)">
	<stop  offset="0" style="stop-color:#E14370"/>
	<stop  offset="0.1469" style="stop-color:#E14871"/>
	<stop  offset="0.2982" style="stop-color:#E25673"/>
	<stop  offset="0.4517" style="stop-color:#E36A76"/>
	<stop  offset="0.6068" style="stop-color:#E58377"/>
	<stop  offset="0.7629" style="stop-color:#E8A075"/>
	<stop  offset="0.9178" style="stop-color:#ECBF6A"/>
	<stop  offset="1" style="stop-color:#EFD05F"/>
</linearGradient>
<path class="st8" d="M140.09,15.56c15.35,8.58,30.93,18.28,36.57,32.05c5.64,14,1.13,31.83-7.45,44.92
	c-8.58,12.87-21.45,20.99-32.51,27.09c-10.84,5.87-19.86,9.93-30.25,16.03c-10.38,5.87-21.9,13.77-30.7,11.51
	c-8.58-2.48-14.45-15.35-27.99-24.61c-13.77-9.48-35.22-15.58-37.25-25.06c-2.03-9.26,15.35-21.9,27.31-32.51
	c11.74-10.61,18.06-19.41,26.64-31.15C72.82,22.1,83.21,7.21,96.3,3.37C109.17-0.47,124.52,6.98,140.09,15.56z"/>
<path id="e9a96f1c-287a-42d8-bbee-a97ef2edbe89-85_00000026877873066228136120000001564832176583724438_" class="st1" d="
	M148.69,50.25h-0.6V33.83c0-5.25-4.25-9.5-9.5-9.5h-34.78c-5.25,0-9.5,4.25-9.5,9.5l0,0v90.05c0,5.25,4.25,9.5,9.5,9.5h34.78
	c5.25,0,9.5-4.25,9.5-9.5V61.93h0.6L148.69,50.25z"/>
<path id="bb6cf65b-d1a0-4b47-beae-738e5a961a87-86_00000082368286800787171090000005152298975526845882_" class="st2" d="
	M138.97,26.8h-4.54c0.7,1.72-0.12,3.69-1.85,4.39c-0.4,0.16-0.84,0.25-1.27,0.25h-19.92c-1.86,0-3.37-1.51-3.37-3.37
	c0-0.44,0.08-0.87,0.25-1.27h-4.24c-3.92,0-7.1,3.18-7.1,7.1v89.92c0,3.92,3.18,7.1,7.1,7.1h34.95c3.92,0,7.1-3.18,7.1-7.1l0,0l0,0
	V33.9C146.07,29.98,142.89,26.8,138.97,26.8z"/>
<path class="st4" d="M110.93,47.78c-0.38,0-0.75-0.16-1.01-0.44c-0.31-0.35-0.45-0.82-0.4-1.29c0.04-0.44,0.22-0.85,0.52-1.17
	c0.29-0.32,0.7-0.5,1.13-0.5c0.4,0,0.78,0.17,1.05,0.46c0.31,0.35,0.45,0.8,0.41,1.26l0,0c-0.03,0.47-0.23,0.9-0.56,1.23
	C111.76,47.62,111.35,47.78,110.93,47.78z M111.18,44.94c-0.55,0-1.03,0.51-1.09,1.16c-0.04,0.31,0.05,0.62,0.25,0.85
	c0.15,0.17,0.37,0.26,0.59,0.25c0.52,0,1.07-0.36,1.14-1.16c0.03-0.3-0.06-0.6-0.26-0.83C111.65,45.04,111.42,44.94,111.18,44.94z
	 M112.36,46.08"/>
<path class="st4" d="M110.95,49.48c-1.71,0.03-3.12-1.33-3.14-3.04c0-0.13,0-0.26,0.02-0.38c0.19-1.89,1.77-3.35,3.68-3.38
	c1.02,0,1.86,0.33,2.43,0.95c0.54,0.59,0.79,1.42,0.71,2.33c-0.08,0.87-0.44,1.32-0.74,1.55c-0.26,0.21-0.6,0.31-0.94,0.27
	c-0.47-0.08-0.98-0.51-0.9-1.43l0.15-1.71c0.01-0.16,0.15-0.27,0.31-0.26c0.15,0.01,0.27,0.15,0.26,0.31l-0.15,1.71
	c-0.04,0.46,0.12,0.77,0.44,0.82c0.18,0.01,0.36-0.04,0.5-0.16c0.2-0.16,0.46-0.48,0.52-1.14c0.07-0.77-0.13-1.42-0.56-1.9
	c-0.46-0.5-1.15-0.76-2.01-0.76c-1.61,0.03-2.94,1.26-3.11,2.86c-0.16,1.39,0.84,2.64,2.23,2.79c0.11,0.01,0.22,0.02,0.33,0.02
	c0.44,0.02,0.89-0.06,1.29-0.23c0.14-0.06,0.31,0.01,0.37,0.15c0.06,0.14-0.01,0.31-0.15,0.37
	C111.98,49.41,111.47,49.5,110.95,49.48z"/>
<path class="st4" d="M107.95,90c-0.16,0-0.28-0.13-0.28-0.28c0-0.08,0.03-0.15,0.08-0.2l1.84-1.84c0.11-0.11,0.29-0.11,0.4,0
	c0.11,0.11,0.11,0.29,0,0.4l-1.84,1.84C108.1,89.97,108.03,90,107.95,90z M112.63,89.29c-0.16,0-0.28-0.13-0.28-0.28
	c0-0.08,0.03-0.15,0.08-0.2l1.56-1.56c0.11-0.11,0.29-0.11,0.4,0c0.11,0.11,0.11,0.29,0,0.4l-1.56,1.56
	C112.78,89.26,112.71,89.29,112.63,89.29L112.63,89.29z M111.78,89.29c-0.08,0-0.15-0.03-0.2-0.08l-1.13-1.13
	c-0.11-0.11-0.11-0.29,0-0.4c0.11-0.11,0.29-0.11,0.4,0c0,0,0,0,0,0l1.13,1.13c0.11,0.11,0.11,0.29,0,0.4
	C111.93,89.26,111.86,89.29,111.78,89.29z"/>
<path class="st4" d="M114.61,87.73c-0.39,0-0.71-0.32-0.71-0.71c0-0.39,0.32-0.71,0.71-0.71c0.39,0,0.71,0.32,0.71,0.71
	C115.32,87.41,115.01,87.73,114.61,87.73z M114.61,86.88c-0.08,0-0.14,0.06-0.14,0.14c0,0.08,0.06,0.14,0.14,0.14
	c0.08,0,0.14-0.06,0.14-0.14v0C114.76,86.94,114.69,86.88,114.61,86.88z"/>
<path class="st4" d="M112.21,90.14c-0.39,0-0.71-0.32-0.71-0.71c0-0.39,0.32-0.71,0.71-0.71c0.39,0,0.71,0.32,0.71,0.71
	C112.91,89.82,112.6,90.14,112.21,90.14z M112.21,89.29c-0.08,0-0.14,0.06-0.14,0.14c0,0.08,0.06,0.14,0.14,0.14
	c0.08,0,0.14-0.06,0.14-0.14l0,0C112.35,89.35,112.28,89.29,112.21,89.29L112.21,89.29z"/>
<path class="st4" d="M110.22,88.16c-0.39,0-0.71-0.32-0.71-0.71c0-0.39,0.32-0.71,0.71-0.71c0.39,0,0.71,0.32,0.71,0.71
	C110.93,87.84,110.61,88.16,110.22,88.16z M110.22,87.31c-0.08,0-0.14,0.06-0.14,0.14c0,0.08,0.06,0.14,0.14,0.14
	c0.08,0,0.14-0.06,0.14-0.14l0,0C110.36,87.37,110.3,87.31,110.22,87.31z"/>
<path class="st4" d="M107.53,90.85c-0.39,0-0.71-0.32-0.71-0.71c0-0.39,0.32-0.71,0.71-0.71c0.39,0,0.71,0.32,0.71,0.71
	C108.24,90.53,107.92,90.85,107.53,90.85z M107.53,90c-0.08,0-0.14,0.06-0.14,0.14c0,0.08,0.06,0.14,0.14,0.14
	c0.08,0,0.14-0.06,0.14-0.14l0,0C107.67,90.06,107.61,90,107.53,90z"/>
<path class="st4" d="M134.43,112.71h-5.95c-0.55,0-0.99-0.44-0.99-0.99v-4.25c0-0.55,0.44-0.99,0.99-0.99h5.95
	c0.55,0,0.99,0.44,0.99,0.99v4.25C135.42,112.27,134.98,112.71,134.43,112.71z M128.48,107.04c-0.23,0-0.42,0.19-0.43,0.43v4.25
	c0,0.23,0.19,0.42,0.43,0.43h5.95c0.23,0,0.42-0.19,0.43-0.43v-4.25c0-0.23-0.19-0.42-0.43-0.43H128.48z"/>
<path class="st4" d="M131.45,110.16c-0.06,0-0.12-0.02-0.17-0.06l-2.55-1.98c-0.12-0.1-0.15-0.27-0.05-0.4
	c0.1-0.12,0.27-0.15,0.4-0.05c0,0,0,0,0,0l2.38,1.85l2.38-1.85c0.12-0.1,0.3-0.07,0.4,0.05c0.1,0.12,0.07,0.3-0.05,0.4c0,0,0,0,0,0
	l-2.55,1.98C131.58,110.14,131.52,110.16,131.45,110.16z"/>
<path class="st5" d="M163.43,116.63l-32.79,0.01c-0.09,0-0.16-0.07-0.16-0.16c0-0.09,0.07-0.16,0.16-0.16l32.79-0.01
	c0.09,0,0.16,0.07,0.16,0.16C163.59,116.56,163.52,116.63,163.43,116.63z"/>
<circle class="st9" cx="162.99" cy="116.48" r="2.2"/>
<path class="st5" d="M162.64,74.61l-33.11,0.01c-0.09,0-0.16-0.07-0.16-0.16s0.07-0.16,0.16-0.16l33.11-0.01
	c0.09,0,0.16,0.07,0.16,0.16S162.73,74.61,162.64,74.61z"/>
<circle class="st9" cx="162.99" cy="74.61" r="2.2"/>
<path class="st5" d="M77.89,53.13l33.11,0.01c0.09,0,0.16-0.07,0.16-0.16c0-0.09-0.07-0.16-0.16-0.16l-33.11-0.01
	c-0.09,0-0.16,0.07-0.16,0.16C77.73,53.06,77.8,53.13,77.89,53.13L77.89,53.13z"/>
<circle class="st9" cx="77.54" cy="53.13" r="2.2"/>
<path class="st5" d="M77.89,95.62l33.11,0.01c0.09,0,0.16-0.07,0.16-0.16c0-0.09-0.07-0.16-0.16-0.16l-33.11-0.01
	c-0.09,0-0.16,0.07-0.16,0.16C77.73,95.55,77.8,95.62,77.89,95.62L77.89,95.62z"/>
<circle class="st9" cx="77.54" cy="95.62" r="2.2"/>
<path class="st5" d="M131.45,116.65c-3.9,0-7.06-3.16-7.06-7.06c0-3.9,3.16-7.06,7.06-7.06c3.9,0,7.06,3.16,7.06,7.06l0,0
	C138.51,113.49,135.35,116.64,131.45,116.65z M131.45,102.85c-3.72,0-6.74,3.02-6.74,6.74c0,3.72,3.02,6.74,6.74,6.74
	c3.72,0,6.74-3.02,6.74-6.74C138.19,105.87,135.18,102.85,131.45,102.85z"/>
<path class="st5" d="M111.07,95.64c-3.9,0-7.06-3.16-7.06-7.06c0-3.9,3.16-7.06,7.06-7.06s7.06,3.16,7.06,7.06
	C118.12,92.48,114.97,95.63,111.07,95.64z M111.07,81.84c-3.72,0-6.74,3.02-6.74,6.74c0,3.72,3.02,6.74,6.74,6.74
	s6.74-3.02,6.74-6.74l0,0C117.81,84.86,114.79,81.84,111.07,81.84L111.07,81.84z"/>
<path class="st5" d="M130.04,74.63c-3.9,0-7.06-3.16-7.06-7.06s3.16-7.06,7.06-7.06c3.9,0,7.06,3.16,7.06,7.06
	C137.09,71.47,133.94,74.62,130.04,74.63z M130.04,60.83c-3.72,0-6.74,3.02-6.74,6.74c0,3.72,3.02,6.74,6.74,6.74
	c3.72,0,6.74-3.02,6.74-6.74C136.78,63.85,133.77,60.83,130.04,60.83z"/>
<path class="st5" d="M111.23,53.13c-3.9,0-7.06-3.16-7.06-7.06s3.16-7.06,7.06-7.06c3.9,0,7.06,3.16,7.06,7.06l0,0
	C118.28,49.97,115.12,53.13,111.23,53.13z M111.23,39.34c-3.72,0-6.74,3.02-6.74,6.74s3.02,6.74,6.74,6.74
	c3.72,0,6.74-3.02,6.74-6.74C117.97,42.36,114.95,39.34,111.23,39.34L111.23,39.34z"/>
<path class="st10" d="M66.95,100.94c-0.39-0.3-0.64-0.75-0.67-1.24c0-0.06-0.01-0.11,0-0.17l-7.3-4.92
	c-0.49-0.33-0.7-0.95-0.52-1.52l3.49-8.67c0.31-0.78,1.2-1.16,1.98-0.84c0.77,0.31,1.15,1.19,0.85,1.97l-2.82,7.16l5.69,5.16
	c0.08-0.02,0.15-0.03,0.23-0.04c0.95-0.08,1.78,0.63,1.86,1.58c0.07,0.87-0.53,1.66-1.39,1.83c-0.11,0.02-0.22,0.03-0.34,0.03
	C67.61,101.29,67.25,101.17,66.95,100.94z"/>
<path class="st9" d="M58.97,89.54c-0.09-0.2-0.08-0.43,0.02-0.63l1.67-3.4c0.35-1.1,1.53-1.71,2.63-1.36
	c1.1,0.35,1.71,1.52,1.37,2.62l-0.61,3.75c-0.07,0.41-0.45,0.69-0.87,0.62c-0.04-0.01-0.07-0.01-0.11-0.03l-3.64-1.16
	C59.23,89.89,59.06,89.74,58.97,89.54z"/>
<polygon class="st10" points="70.46,131.57 72.38,131.57 73.3,124.16 70.46,124.16 "/>
<path class="st7" d="M69.97,130.94l3.79,0h0c1.33,0,2.41,1.08,2.41,2.41c0,0,0,0,0,0v0.08l-6.2,0L69.97,130.94z"/>
<polygon class="st10" points="51.66,130.21 53.53,130.69 56.26,123.73 53.51,123.03 "/>
<path class="st7" d="M51.35,129.48l3.67,0.94l0,0c1.29,0.33,2.07,1.65,1.74,2.94c0,0,0,0,0,0l-0.02,0.08l-6-1.54L51.35,129.48z"/>
<circle class="st10" cx="65.15" cy="76.86" r="3.85"/>
<path class="st9" d="M63.2,92.87c-0.92-0.94-1.69-2.01-2.31-3.17c-0.66-1.29-0.75-2.8-0.24-4.15c0.52-1.39,1.6-2.49,2.98-3.03
	c2.47-1,5.3,0.05,6.52,2.42c0.96,1.89,1.34,3.73,1.12,5.48c-0.42,3.35-0.66,5.08-0.73,5.14l-0.02,0.02l-7.16,0.32L63.2,92.87z"/>
<path class="st7" d="M63.63,94.97l6.41-0.32c0.34-0.02,0.63,0.24,0.66,0.57l2.95,33.06c0.03,0.35-0.22,0.65-0.57,0.68
	c-0.02,0-0.05,0-0.07,0l-2.5-0.05c-0.28-0.01-0.53-0.2-0.6-0.48l-4.78-19.28c-0.08-0.34-0.42-0.54-0.76-0.46
	c-0.18,0.05-0.34,0.17-0.42,0.35l-9.07,19.69c-0.13,0.28-0.43,0.42-0.73,0.34l-2.52-0.66c-0.32-0.08-0.52-0.41-0.46-0.74
	c0.83-3.91,5.8-26.33,12.05-32.54C63.33,95.04,63.47,94.98,63.63,94.97z"/>
<path class="st10" d="M75.77,98.69c-0.47-0.14-0.85-0.48-1.06-0.93c-0.02-0.05-0.04-0.1-0.06-0.16l-8.55-2.1
	c-0.58-0.14-0.99-0.65-1.01-1.24l0.28-9.34c0.03-0.84,0.73-1.5,1.57-1.47c0.83,0.03,1.49,0.72,1.47,1.55l-0.17,7.7l7.12,2.88
	c0.06-0.04,0.13-0.08,0.2-0.11h0c0.87-0.4,1.89-0.02,2.29,0.84c0.4,0.87,0.02,1.89-0.84,2.29C76.61,98.78,76.17,98.81,75.77,98.69z"
	/>
<path class="st9" d="M64.45,89.58c-0.15-0.16-0.22-0.38-0.2-0.6l0.42-3.77c-0.04-1.16,0.86-2.13,2.02-2.17
	c1.15-0.04,2.12,0.86,2.17,2.01l0.69,3.74c0.08,0.41-0.2,0.8-0.61,0.88c-0.04,0.01-0.07,0.01-0.11,0.01l-3.81,0.13
	C64.81,89.83,64.6,89.74,64.45,89.58z"/>
<path class="st7" d="M59.63,81.94l0.4-1.3l0.28,1.46l2.26-0.06l-0.01-1.44l0.86,1.42l2.05-0.45c-0.44-0.58-0.88-1.17-1.16-1.86
	c-0.28-0.69-0.38-1.49-0.12-2.19c0.65-1.72,3.1-1.24,4.44-1.25c0.39,0,0.83-0.03,1.09-0.35c0.19-0.24,0.22-0.59,0.21-0.9
	c-0.05-1.64-1.03-3.2-2.43-3.85c-0.68-0.31-1.44-0.42-2.18-0.3c-0.39,0.06-0.76,0.18-1.11,0.35c-0.31,0.15-0.64,0.52-0.98,0.51
	c-0.28-0.01-0.66-0.3-0.97-0.35c-0.37-0.06-0.75-0.04-1.12,0.04c-0.74,0.16-1.4,0.56-1.89,1.13c-1.05,1.22-1.36,3.01-1.18,4.66
	s0.8,3.2,1.41,4.73"/>
<path class="st1" d="M169.57,133.72H43.82c-0.09,0-0.16-0.07-0.16-0.16c0-0.09,0.07-0.16,0.16-0.16h125.75
	c0.09,0,0.16,0.07,0.16,0.16C169.73,133.65,169.66,133.72,169.57,133.72z"/>
<path class="st11" d="M167.45,131.78c0.48-0.39,0.83-0.91,1-1.5c0.13-0.6-0.13-1.3-0.7-1.53c-0.64-0.25-1.33,0.2-1.84,0.65
	c-0.52,0.45-1.11,0.96-1.79,0.86c0.71-0.65,1.03-1.61,0.84-2.55c-0.03-0.19-0.11-0.37-0.23-0.52c-0.35-0.38-1-0.22-1.43,0.08
	c-1.35,0.95-1.73,2.79-1.74,4.45c-0.14-0.6-0.02-1.22-0.03-1.82c0-0.6-0.17-1.3-0.69-1.62c-0.32-0.17-0.68-0.26-1.04-0.25
	c-0.61-0.02-1.29,0.04-1.7,0.48c-0.52,0.55-0.38,1.48,0.07,2.08s1.13,0.99,1.76,1.41c0.51,0.3,0.94,0.71,1.26,1.2
	c0.04,0.07,0.07,0.14,0.09,0.21h3.81C165.95,132.98,166.74,132.43,167.45,131.78z"/>
<path class="st4" d="M127.77,71.72c-0.24,0-0.43-0.19-0.42-0.43c0-0.06,0.01-0.12,0.04-0.17l0.49-1.09
	c-1.52-1.35-1.65-3.67-0.31-5.18c1.35-1.52,3.67-1.65,5.18-0.31c1.52,1.35,1.65,3.67,0.31,5.18c-0.95,1.07-2.43,1.49-3.79,1.08
	l-1.25,0.85C127.94,71.69,127.85,71.72,127.77,71.72z M130.3,64.15c-1.74,0-3.14,1.41-3.14,3.14c0,0.96,0.44,1.87,1.19,2.46
	l0.15,0.12l-0.53,1.18l1.21-0.82l0.12,0.04c1.65,0.55,3.43-0.33,3.98-1.98c0.55-1.65-0.33-3.43-1.98-3.98
	C130.98,64.2,130.64,64.15,130.3,64.15L130.3,64.15z"/>
<circle class="st4" cx="130.3" cy="67.12" r="0.51"/>
<circle class="st4" cx="128.86" cy="67.12" r="0.51"/>
<circle class="st4" cx="131.75" cy="67.12" r="0.51"/>
</svg>
